<svg width="514" height="136" viewBox="0 0 514 136" fill="none" xmlns="http://www.w3.org/2000/svg">
<g opacity="0.5">
<path d="M177.064 37.8921C184.504 33.3248 192.888 30.4751 201.293 29.6699C208.457 28.9683 215.901 29.7457 222.99 31.8917L223.234 29.0445C215.864 26.9164 208.361 26.1759 201.028 26.8771C192.2 27.73 183.413 30.7131 175.605 35.5007C167.796 40.2883 161.17 46.7861 156.416 54.2836C155.074 56.3932 153.895 58.5727 152.864 60.8069C140.681 64.4224 129.84 71.1329 119.9 77.9485C117.479 79.6019 115.038 81.3235 112.686 82.9829C104.07 89.0305 95.1717 95.2777 85.6138 99.9155C74.8302 105.148 62.7493 108.38 50.6738 109.263C38.2603 110.173 26.2181 108.708 14.8802 104.897C10.2317 103.324 5.71495 101.356 1.43736 99.0449L1.17928 102.059C5.33111 104.205 9.57971 106.038 13.9981 107.521C20.9037 109.848 28.0775 111.329 35.4083 111.957C40.4898 112.392 45.6626 112.416 50.8838 112.037C63.2972 111.128 75.7359 107.8 86.8405 102.413C96.5884 97.6795 105.59 91.3711 114.281 85.26C116.633 83.6007 119.073 81.8929 121.479 80.2522C130.631 73.9847 140.515 67.8219 151.456 64.1839C148.152 72.8828 147.27 82.041 149.068 90.4355C150.395 96.6629 153.306 102.522 157.477 107.385C161.8 112.428 167.198 116.038 173.101 117.816C179.14 119.649 185.861 119.399 192.038 117.158C198.376 114.846 203.509 110.599 206.516 105.204C209.838 99.2489 210.591 91.9264 208.631 84.5954C206.777 77.6653 202.574 71.2195 197.083 66.9019C191.763 62.7248 185.295 60.0165 177.898 58.8653C171.204 57.8165 163.946 58.1323 156.911 59.7683C156.754 59.8108 156.598 59.8394 156.44 59.8819C157.146 58.5013 157.933 57.1417 158.774 55.8147C163.304 48.6477 169.624 42.4595 177.064 37.8921ZM157.533 62.4658C164.226 60.9124 171.118 60.6212 177.466 61.6125C184.395 62.6955 190.417 65.2118 195.357 69.0905C200.376 73.032 204.234 78.9445 205.927 85.3013C207.695 91.9303 207.033 98.5191 204.074 103.834C198.62 113.636 185.356 118.6 173.89 115.142C168.504 113.519 163.558 110.2 159.577 105.564C155.712 101.05 153.015 95.6282 151.775 89.8558C149.945 81.3467 151.085 71.9449 154.874 63.1475C155.763 62.8878 156.649 62.6699 157.533 62.4658Z" fill="white"/>
<path d="M249 38.307L222.441 14.0615L222.054 24.7363L240.648 34.873L221.912 28.6774L221.911 28.6876L221.911 28.6754L213.712 31.379L221.695 34.6615L221.421 42.2449L249 38.307Z" fill="white"/>
</g>
<g opacity="0.5">
<rect x="443.472" y="7.89209" width="22.0884" height="3.6814" rx="1.8407" transform="rotate(42.1773 443.472 7.89209)" fill="white"/>
<rect x="494.749" y="22.7236" width="22.0884" height="3.6814" rx="1.8407" transform="rotate(-42.18 494.749 22.7236)" fill="white"/>
<rect x="480" width="23" height="3" rx="1.5" transform="rotate(90 480 0)" fill="white"/>
</g>
<g opacity="0.5">
<rect width="22.3383" height="3.72305" rx="1.86152" transform="matrix(0.741071 -0.671427 -0.671427 -0.741071 443.09 127.614)" fill="white"/>
<rect width="22.3383" height="3.72305" rx="1.86152" transform="matrix(0.741039 0.671462 0.671462 -0.741039 494.947 112.615)" fill="white"/>
<rect width="23.2602" height="3.03394" rx="1.51697" transform="matrix(0 -1 -1 0 480.031 135.596)" fill="white"/>
</g>
</svg>
